<?xml version="1.0" encoding="utf-8"?>
<!-- Generator: Adobe Illustrator 17.1.0, SVG Export Plug-In . SVG Version: 6.00 Build 0)  -->
<!DOCTYPE svg PUBLIC "-//W3C//DTD SVG 1.1//EN" "http://www.w3.org/Graphics/SVG/1.1/DTD/svg11.dtd">
<svg version="1.1" id="Layer_1" xmlns="http://www.w3.org/2000/svg" xmlns:xlink="http://www.w3.org/1999/xlink" x="0px" y="0px"
	 viewBox="12.2 293 585.5 209.5" enable-background="new 12.2 293 585.5 209.5" xml:space="preserve">
<g enable-background="new    ">
	<path fill="#FBF49C" d="M21.7,366.9l-2.3,18.9c0,10.3,1.1,27.5,3.4,51.5c2.3,24.1,4.6,37.9,7,41.6c4.6,7.1,11.5,10.6,20.6,10.6
		c9.1,0,15.8-2.5,20.1-7.5c1.6,0,3.6-0.3,6-0.9l1.3,1.4c0,8.3-6.6,13.8-19.9,16.3c-3.1,0.6-6.7,0.9-10.7,0.9c-4,0-8.6-2-14-5.9
		s-9.1-8.2-11.4-13c-2.2-4.8-4.4-19.6-6.5-44.4c-2.1-24.8-3.2-46.7-3.2-65.6s0.6-30,1.7-33.4c-0.6-3-0.9-5.8-0.9-8.4
		c0-10.5,3.7-18.6,11.2-24.4c7.5-5.8,16.7-8.7,27.6-8.7c3,0,6.2,0.9,9.8,2.8c3.5,1.9,5.3,4.2,5.3,6.9c0,2-1.4,2.9-4.1,2.9
		c-0.8,0-1.8-0.5-3.2-1.6c-1.4-1.1-2.5-1.6-3.4-1.6s-1.8,0.2-2.9,0.5c-2-0.7-4.1-1-6.3-1c-2.1,0-4.7,0.4-7.7,1.3
		c-3,0.9-5.5,2-7.5,3.4c-2,1.4-3.7,3.3-5.1,5.7c-1.4,2.4-2.5,4.7-3.3,6.8s-1.4,5-1.8,8.4c-0.5,4.8-0.8,10.8-0.8,18L21.7,366.9z"/>
	<path fill="#FBF49C" d="M161.1,418.9l2.9,68.1v2.8c0,2-0.3,3.3-0.8,3.8c-1.4,1.2-2.9,1.8-4.5,1.8c-1.6,0-2.9-0.4-4-1.3
		c-1-0.8-1.5-1.9-1.5-3.2c0.5-1,0.8-2,0.8-3.1l-0.8-5.2v-25.9c0-2.3-4.6-4.3-13.8-5.9c-9.2-1.7-16-2.5-20.4-2.5
		c-1.7,0-3.2,3.2-4.6,9.5c-1.4,6.3-2.7,13.3-4,20.9c-1.3,7.6-2.6,12.3-3.8,14.2c-4.1,0-6.8-1.1-8-3.2c2.7-3.9,5.3-13.4,7.8-28.6
		c2.5-15.1,4.5-26.1,6.1-33c1.5-6.8,4.3-21.7,8.2-44.6c4-22.9,6.6-37.5,8-44c1.4-6.4,2.5-11.2,3.3-14.2c0.8-3.1,1.7-6.7,2.9-10.8
		c2.8-10,5.3-15.1,7.5-15.1c2.7,0,4.5,0.6,5.4,1.8c0.9,1.2,1.7,4.1,2.3,8.7c0.6,4.6,1.3,10.3,1.9,17.4c0.6,7,1.2,13.5,1.7,19.3
		c1.6,18.4,2.6,30.4,3,36.2c0.4,5.8,1.2,10,2.4,12.5c-0.3,5.3-0.5,9.8-0.5,13.6C158.8,412.8,159.6,416.1,161.1,418.9z M118.3,441.1
		c7.3,2.5,16.1,3.7,26.4,3.7c2.1,0,3.7-0.2,4.7-0.5l1.3,0.5c1.6,0,2.4-0.8,2.4-2.4c0-36.4-3.4-75.7-10.2-117.8
		c-0.1-0.5-0.3-1.4-0.6-2.8c-0.3-1.4-0.4-2.4-0.4-3.2c-2.1,6-3.3,9.9-3.4,11.5l0.8,1.5c-0.6,0.6-1.6,3.6-2.9,9
		c-1.4,5.4-3.3,16.5-5.7,33.4c-2.4,16.9-4.2,27.7-5.2,32.5c-1.1,4.8-2.2,9.2-3.4,13.1c-2.5,8.7-3.7,15.3-3.7,19.9V441.1z"/>
	<path fill="#FBF49C" d="M258.3,297.2c0.5-2.8,2.6-4.2,6.3-4.2c0.6,0,1.3,0.4,2,1.3c0.8,0.9,1.1,1.6,1.1,2.3
		c-0.6,11.7-0.9,22.8-0.9,33.6s0.7,29.2,2.1,55.5c1.4,26.3,2.1,43.9,2.1,52.9c0,9-0.1,14.6-0.3,16.8c-0.2,2.2,0,6,0.6,11.5
		c0.6,5.5,0.9,12.5,0.9,20.9c0,8.4-1.3,13.2-3.8,14.4v-0.8l-1,1l-5-2v-0.8c0-1.1,0.3-2.2,0.8-3.2l-1-2.3c0.3-10.4,0.5-18.3,0.5-23.9
		l-1.9-85.9l0.5-29.3c0-3-0.1-7.1-0.4-12.5c-0.3-5.4-0.5-8.9-0.6-10.7c-0.3,0.3-0.5,0.9-0.5,1.8c-0.5,11.3-3,28.5-7.4,51.5
		c-2.8,17.8-6.4,34-10.8,48.6c-0.3,0.9-0.7,2.2-1.4,3.8c-1.5,3.7-2.3,6.5-2.3,8.4l0.8,1.3c-0.2,0.6-0.6,2.9-1.1,6.8
		c-1.4,8.6-3.7,12.9-7.1,12.9c-3.8,0-5.9-6.8-6.1-20.3c0-2.2-0.2-5.1-0.7-8.6c-0.5-3.5-4.3-22.5-11.6-56.9
		c-7.3-34.4-11.4-52.3-12.4-53.8c-0.7,15.7-1,33.3-1,52.8l0.8,83.1l1.3,24.9c0,3.1-0.7,5.4-2,6.8c-4.9,0-7.4-4.5-7.4-13.7l1.4-43.6
		l-1-52.9l0.8-62c0-10-0.1-17.4-0.3-22.5l5-2.8c4.1,0.5,11.7,28.4,23,83.6c2.3,11.6,4.1,20.1,5.4,25.6c1.3,5.5,2.2,9.5,2.7,11.8
		c0.5,2.3,1.1,5.1,1.7,8.4c1.4,6.5,2,11.3,2,14.3c1-2.6,2.7-9.8,5-21.6l3.7-18.4c1-4.9,3.4-17.5,7.1-37.6
		c3.7-20.1,6.1-32.9,7.3-38.5c2.5-11.3,3.8-20.2,4.1-26.7L258.3,297.2z"/>
	<path fill="#FBF49C" d="M310.3,403l2.2,86c0,2.6-0.4,4.5-1.1,5.9c-0.7,1.4-2.2,2.1-4.5,2.1c-2.3,0-3.4-3-3.4-9.1l1-46.8l-2-42.4
		c0-19.4-0.2-35.4-0.7-47.9c-0.5-12.5-0.8-20.9-0.9-25.1c-0.1-4.2-0.2-7.3-0.3-9.4c-0.4-6.7-1.2-12.3-2.3-16.8
		c1.6-2.5,3.9-3.7,6.8-3.7c6.2,0,11.8,1.4,16.8,4.3c5,2.9,9,6.7,11.9,11.4c6.1,9.8,9.2,19.8,9.2,30s-1.8,20.6-5.5,31.1
		c-4.6,13.4-10.5,21.5-17.6,24.5c-2.3,0.9-3.9,1.9-4.7,2.9C313.7,401.6,312.1,402.6,310.3,403z M306.7,303.5l3.1,89.3l0.5,0.5
		c1.8-0.2,3.1-0.7,4-1.5c0.9-0.8,1.8-1.7,2.6-2.6c0.8-0.9,1.4-1.6,1.8-1.9c11.3-11.3,17-25.5,17-42.6c0-6-0.3-10.7-0.8-14.3
		c-0.5-3.6-2-7-4.4-10.3c-2.4-3.3-4.5-5.6-6.3-7.1c-1.7-1.4-4.2-3.3-7.4-5.7c-3.2-2.3-5-3.6-5.4-3.9H306.7z"/>
	<path fill="#FBF49C" d="M414.4,366.9l-2.3,18.9c0,10.3,1.1,27.5,3.4,51.5c2.3,24.1,4.6,37.9,7,41.6c4.6,7.1,11.5,10.6,20.6,10.6
		c9.1,0,15.8-2.5,20.1-7.5c1.6,0,3.6-0.3,6-0.9l1.3,1.4c0,8.3-6.6,13.8-19.9,16.3c-3.1,0.6-6.7,0.9-10.7,0.9s-8.6-2-14-5.9
		c-5.4-3.9-9.1-8.2-11.4-13c-2.2-4.8-4.4-19.6-6.5-44.4c-2.1-24.8-3.2-46.7-3.2-65.6s0.6-30,1.7-33.4c-0.6-3-0.9-5.8-0.9-8.4
		c0-10.5,3.7-18.6,11.2-24.4c7.5-5.8,16.7-8.7,27.6-8.7c3,0,6.2,0.9,9.8,2.8c3.5,1.9,5.3,4.2,5.3,6.9c0,2-1.4,2.9-4.1,2.9
		c-0.8,0-1.8-0.5-3.2-1.6c-1.4-1.1-2.5-1.6-3.4-1.6c-0.9,0-1.9,0.2-2.9,0.5c-2-0.7-4.1-1-6.3-1c-2.1,0-4.7,0.4-7.7,1.3
		c-3,0.9-5.5,2-7.5,3.4c-2,1.4-3.7,3.3-5.1,5.7c-1.4,2.4-2.5,4.7-3.3,6.8s-1.4,5-1.8,8.4c-0.5,4.8-0.8,10.8-0.8,18L414.4,366.9z"/>
	<path fill="#FBF49C" d="M556.2,416.6l-2.4,33.7l0.5,1c-1.4,5.9-2,11.1-2,15.8c0,4.7-0.9,9.5-2.8,14.5c-1.9,5-4.7,9.4-8.4,13.4
		s-7.7,5.9-11.9,5.9c-4.3,0-8.2-1.6-11.9-4.8c-3.7-3.2-6.7-7.4-9.1-12.4c-2.4-5.1-4.6-11.1-6.4-18c-1.8-6.9-3.3-13.7-4.3-20.4
		c-1-6.7-1.9-13.6-2.6-20.7c-1-11.9-1.5-22.2-1.5-30.9c0-8.7,0.4-18.6,1.1-29.8c0.8-11.1,1.2-18.3,1.3-21.6c0.1-3.2,0.2-6.1,0.3-8.5
		c0.1-2.5,0.3-5.4,0.6-8.9c0.3-3.4,0.8-6.5,1.3-9.1c0.6-2.6,1.4-5.3,2.5-8c1.1-2.7,2.5-5,4.1-6.8c3.6-4,8.6-6,15-6
		c6.4,0,11.7,1.7,15.9,5.2c0.6,0.9,2.1,3,4.7,6.3c2.5,3.2,4.4,6.3,5.6,9.2c1.2,2.9,2.6,10.1,4.1,21.6
		C554.2,367.2,556.2,393.6,556.2,416.6z M520.1,301.8c-12.8,0-19.3,25.8-19.3,77.4v10.2c0,12.1,0.9,25.1,2.7,39
		c1.8,13.9,3.7,25.2,5.7,33.9c2,8.7,4.8,16.1,8.4,22.2c3.6,6.1,7.6,9.2,12.1,9.2c6,0,10.3-6.1,13-18.2c2.7-12.1,4.3-22.9,4.8-32.3
		c0.6-12.9,0.9-21.3,0.9-25.3v-6.3c0-3.2,0-6-0.1-8.2c0-2.3-0.1-6-0.2-11.1c-0.1-5.1-0.3-9.7-0.5-13.7c-0.3-4-0.6-8.8-1-14.5
		c-0.4-5.7-1-10.8-1.8-15.2c-0.8-4.5-1.6-9.2-2.6-14.3c-1-5.1-2.2-9.4-3.6-13.1c-1.4-3.7-3-7.1-4.8-10.2
		C530.4,305,525.8,301.8,520.1,301.8z"/>
	<path fill="#FBF49C" d="M586.4,494.5c-1.1-1.3-1.7-2.8-1.7-4.4c0-1.6,0.7-3.2,2.1-4.7c1.4-1.5,2.9-2.2,4.5-2.2
		c1.6,0,3.1,0.7,4.4,2.2c1.3,1.5,2,3,2,4.5c0,4.3-2.4,6.5-7.3,6.5C588.9,496.5,587.6,495.8,586.4,494.5z"/>
</g>
</svg>
