<?xml version="1.0" encoding="utf-8"?>
<!-- Generator: Adobe Illustrator 17.1.0, SVG Export Plug-In . SVG Version: 6.00 Build 0)  -->
<!DOCTYPE svg PUBLIC "-//W3C//DTD SVG 1.1//EN" "http://www.w3.org/Graphics/SVG/1.1/DTD/svg11.dtd">
<svg version="1.1" id="Layer_1" xmlns="http://www.w3.org/2000/svg" xmlns:xlink="http://www.w3.org/1999/xlink" x="0px" y="0px"
	 viewBox="0 0 313.396 313.396" enable-background="new 0 0 313.396 313.396" xml:space="preserve">
<path fill="#CE7A29" d="M254.767,313.396H63.165C28.28,313.396,0,285.116,0,250.23V63.451C0,28.408,28.408,0,63.451,0h191.316
	c32.38,0,58.629,26.249,58.629,58.629v196.138C313.396,287.147,287.147,313.396,254.767,313.396z"/>
<path fill="#244492" d="M180.333,284h53.895l-0.282-126.35h38.59v-39.823h-37.384c0,0-9.555-37.384,37.384-32.561V43.662h-47.333
	c0,0-38.892,1.206-44.921,45.223l-0.189,27.954h-34.408v40.812h34.408L180.333,284z"/>
<path fill="none" stroke="#244492" stroke-width="9" stroke-miterlimit="10" d="M242.657,301.261H70.738
	c-32.366,0-58.603-26.238-58.603-58.603V70.738c0-32.366,26.238-58.603,58.603-58.603h171.919c32.366,0,58.603,26.238,58.603,58.603
	v171.919C301.261,275.023,275.023,301.261,242.657,301.261z"/>
</svg>
