<?xml version="1.0" encoding="utf-8"?>
<!-- Generator: Adobe Illustrator 17.1.0, SVG Export Plug-In . SVG Version: 6.00 Build 0)  -->
<!DOCTYPE svg PUBLIC "-//W3C//DTD SVG 1.1//EN" "http://www.w3.org/Graphics/SVG/1.1/DTD/svg11.dtd">
<svg version="1.1" id="Layer_1" xmlns="http://www.w3.org/2000/svg" xmlns:xlink="http://www.w3.org/1999/xlink" x="0px" y="0px"
	 viewBox="0 0 315.649 314.473" enable-background="new 0 0 315.649 314.473" xml:space="preserve">
<g>
	<g>
		<path fill="#CE7B29" stroke="#000000" stroke-miterlimit="10" d="M255.279,313.973H63.677c-34.885,0-63.165-28.28-63.165-63.165
			V61.746c0-35.043,27.833-61.246,63.451-61.169h191.316c32.38,0,58.629,26.249,58.629,58.629v196.138
			C313.908,287.724,287.659,313.973,255.279,313.973z"/>
		<path fill="#FFD78B" stroke="#000000" stroke-miterlimit="10" d="M0.512,98.531h314.625l-1.229-48.396
			c0,0-5.58-42.346-51.329-49.53H56.19c0,0-44.373,3.842-54.582,51.622L0.512,98.531z"/>
		<path fill="#1E2358" stroke="#000000" stroke-miterlimit="10" d="M275.005,85.119H245.86c-9.074,0-16.43-7.356-16.43-16.43V39.545
			c0-9.074,7.356-16.43,16.43-16.43h29.145c9.074,0,16.43,7.356,16.43,16.43v29.145C291.435,77.763,284.079,85.119,275.005,85.119z"
			/>
		<circle stroke="#000000" stroke-miterlimit="10" cx="260.433" cy="54.117" r="18.718"/>
		<circle stroke="#000000" stroke-miterlimit="10" cx="157.21" cy="157.275" r="81.102"/>
		<circle fill="#1E2358" stroke="#000000" stroke-miterlimit="10" cx="157.21" cy="157.275" r="72.22"/>
		<circle stroke="#000000" stroke-miterlimit="10" cx="157.21" cy="157.275" r="35.368"/>
	</g>
	<path fill="#E53225" stroke="#000000" stroke-miterlimit="10" d="M23.39,15.243c0,0,9.969-7.644,16.41-9.9v93.769H23.39V15.243z"/>
	<path fill="#F2EA1F" stroke="#000000" stroke-miterlimit="10" d="M39.801,5.343c0,0,10.65-4.567,15.054-4.114l0.002,97.302
		l-15.056,0.581V5.343z"/>
	<path fill="#5ABA47" stroke="#000000" stroke-miterlimit="10" d="M54.855,1.229c0,0,9.393-0.818,14.088-0.721l0.44,98.023H54.856
		L54.855,1.229z"/>
	<polygon fill="#5390CC" stroke="#000000" stroke-miterlimit="10" points="68.943,0.508 84.937,0.508 86.11,98.531 69.383,98.531 	
		"/>
	<path fill="#A12721" stroke="#000000" stroke-miterlimit="10" d="M75.312,120.336H37.068c-7.554,0-13.677-6.124-13.677-13.677
		v-3.301c0-7.554,6.124-13.677,13.677-13.677h38.244c7.554,0,13.677,6.124,13.677,13.677v3.301
		C88.989,114.212,82.866,120.336,75.312,120.336z"/>
</g>
</svg>
