<?xml version="1.0" encoding="utf-8"?>
<!-- Generator: Adobe Illustrator 17.1.0, SVG Export Plug-In . SVG Version: 6.00 Build 0)  -->
<!DOCTYPE svg PUBLIC "-//W3C//DTD SVG 1.1//EN" "http://www.w3.org/Graphics/SVG/1.1/DTD/svg11.dtd">
<svg version="1.1" id="Layer_1" xmlns="http://www.w3.org/2000/svg" xmlns:xlink="http://www.w3.org/1999/xlink" x="0px" y="0px"
	 viewBox="0 0 313.396 313.396" enable-background="new 0 0 313.396 313.396" xml:space="preserve">
<path fill="#CE7A29" d="M254.767,313.396H63.165C28.28,313.396,0,285.116,0,250.23V63.451C0,28.408,28.408,0,63.451,0h191.316
	c32.38,0,58.629,26.249,58.629,58.629v196.138C313.396,287.147,287.147,313.396,254.767,313.396z"/>
<path fill="#244493" d="M82.527,98.766c0,0,44.827-7.603,50.94-69.278h39.393v64.523l46.864,0.679v42.11H172.18v77.428
	c0,0-0.679,35.997,44.827,19.017l13.584,35.997c0,0-98.483,54.336-118.859-46.185l0.679-84.899l-29.885-1.358V98.766z"/>
</svg>
